PathFileType	4	(X/Y/Z)	/Users/niels/Desktop/University/Third Semester/Perception and Action/Exam/Gymnastics Motion Tracking/Code for Gym Tracking/Analyzed Data/Webcam_Backflip/id2000_2_trajectory_Sports2D/id2000_2_trajectory_Sports2D_px_person00.trc
DataRate	CameraRate	NumFrames	NumMarkers	Units	OrigDataRate	OrigDataStartFrame	OrigNumFrames
29.8876404494382	29.8876404494382	12	22	m	29.8876404494382	200	267
Frame#	Time	Hip			RHip			RKnee			RAnkle			RBigToe			RSmallToe			RHeel			LHip			LKnee			LAnkle			LBigToe			LSmallToe			LHeel			Neck			Head			Nose			RShoulder			RElbow			RWrist			LShoulder			LElbow			LWrist		
		X1	Y1	Z1	X2	Y2	Z2	X3	Y3	Z3	X4	Y4	Z4	X5	Y5	Z5	X6	Y6	Z6	X7	Y7	Z7	X8	Y8	Z8	X9	Y9	Z9	X10	Y10	Z10	X11	Y11	Z11	X12	Y12	Z12	X13	Y13	Z13	X14	Y14	Z14	X15	Y15	Z15	X16	Y16	Z16	X17	Y17	Z17	X18	Y18	Z18	X19	Y19	Z19	X20	Y20	Z20	X21	Y21	Z21	X22	Y22	Z22
200	6.691729323308271	0.8868977730253501	-0.2077767333446262	0.0	0.8766149861670628	-0.20591219502154157	0.0	1.2142360403134054	-0.3348310968103181	0.0	1.0702602786510984	-0.6755131214633004	0.0	1.1933218391207698	-0.8326923083051564	0.0	1.1582328773912884	-0.8260599912625424	0.0	1.0126706916140005	-0.7030588908732962	0.0	0.8767581475185819	-0.24491983010268945	0.0	1.111949359060998	-0.9078459607532249	0.0	1.1084796461410455	-1.0432237630226926	0.0	1.202665684518185	-0.8709433997318997	0.0	1.1933516662884642	-0.8707645311425275	0.0	0.8681170659568428	-1.0627313344019083	0.0	1.0730741671010995	-0.06123244260740892	0.0	1.3327984397173402	-0.06705877734339227	0.0	1.2641253798371281	-0.07095435331058558	0.0	1.0339996513981586	-0.003911553449534702	0.0	1.162622634694651	-0.002573971379425379	0.0	1.2610354484267616	-0.22580189634397985	0.0	1.0646987811241557	-0.09488035208911726	0.0	1.1642979103976225	-0.18280057199277308	0.0	1.307160271043552	-0.0970191329363125	0.0
201	6.7251879699248125	0.9069706190114264	-0.22547329147431894	0.0	0.8913476098193711	-0.22609055727253113	0.0	1.2045972658569044	-0.41733000701509015	0.0	1.064871670835694	-0.7664888419179787	0.0	1.1925143291354372	-0.9056405187694634	0.0	1.1560213793959893	-0.9033874575230818	0.0	1.0111253292584634	-0.794619964951399	0.0	0.9080688974690053	-0.25922652775165056	0.0	1.121254571846988	-0.8786726732881752	0.0	1.1062866248268228	-1.0414347284167753	0.0	1.2028929063635618	-0.9307432343990968	0.0	1.1930163329773724	-0.9258967466270497	0.0	0.8874076003635617	-1.0607095185678326	0.0	1.0838906773664816	-0.059472278337037665	0.0	1.3082211295189825	-0.06039332854597743	0.0	1.2525999319038423	-0.06302892008269674	0.0	1.0356530146152896	-0.0030178824413138977	0.0	1.1329201310646648	-0.004222811177833711	0.0	1.2370962271949886	-0.23539616293262583	0.0	1.0793801489172417	-0.08737831480637773	0.0	1.1512149131968346	-0.16760141082008037	0.0	1.2866294694414788	-0.12155369597803074	0.0
202	6.758646616541354	0.9309117820690728	-0.2537202675758485	0.0	0.9096123172061262	-0.25690896395883084	0.0	1.1894155055492717	-0.5168861068491161	0.0	1.0586521232159156	-0.8671929834151264	0.0	1.195354454022201	-0.9790431779112756	0.0	1.159527278374046	-0.9823827486160267	0.0	1.0091645056232388	-0.8946602793473328	0.0	0.9454212799630307	-0.2833663120292421	0.0	1.1323812475212534	-0.8440088190940854	0.0	1.103354730709836	-1.0402778766445346	0.0	1.2033879843227262	-0.9890620416802147	0.0	1.1929285306511923	-0.980580822647493	0.0	0.9162775366211047	-1.0584789552164446	0.0	1.0985726315146873	-0.058829624736716636	0.0	1.2856576770055268	-0.05374783271285503	0.0	1.2434472235626357	-0.05558908925384083	0.0	1.0392167439535478	-0.004702322551412509	0.0	1.099057065967609	-0.01734391204198351	0.0	1.2102079405905373	-0.2550132321524236	0.0	1.0982751446536245	-0.07910510420410659	0.0	1.1294109126916048	-0.1537439047025975	0.0	1.2563687464422815	-0.1647236394567558	0.0
203	6.792105263157895	0.9533747774498953	-0.2920063939623274	0.0	0.9280563604215546	-0.2967981160433798	0.0	1.172485697054871	-0.6205211290612963	0.0	1.053536516498264	-0.9589642862626657	0.0	1.2006350162395154	-1.040879209072582	0.0	1.1675545336387978	-1.050350394137957	0.0	1.0072160200146523	-0.9840453062234374	0.0	0.9789249488679158	-0.3167386172942209	0.0	1.141816671027643	-0.8154611085410959	0.0	1.1001148129185887	-1.0409677120294953	0.0	1.2036493009035183	-1.0368288109395565	0.0	1.1929637693951842	-1.0265428939980787	0.0	0.9508309359896328	-1.0568330637340941	0.0	1.1140006416666302	-0.061040954139455754	0.0	1.2699623043632589	-0.0483564508050095	0.0	1.239747366753108	-0.050449090588007624	0.0	1.0451711752521087	-0.011505906272097294	0.0	1.0669774212635497	-0.04790856582599395	0.0	1.1821257002161234	-0.2927573180245742	0.0	1.1163907735387637	-0.07359019673596871	0.0	1.1002660650795593	-0.15055902096837812	0.0	1.2206544536043626	-0.22644176553404094	0.0
204	6.825563909774436	0.9691153676924205	-0.3391629047645564	0.0	0.9423212942014373	-0.3442747906730763	0.0	1.1581037283394542	-0.7163298719882714	0.0	1.0505762567526866	-1.0283413185767394	0.0	1.2061613841936594	-1.0840133510098526	0.0	1.1773981875697597	-1.0993870591245263	0.0	1.0048926255551693	-1.0494558535360197	0.0	0.9994898335991473	-0.3585045150450753	0.0	1.1462151682160489	-0.805025671550843	0.0	1.0969585049725243	-1.0442000792523094	0.0	1.202680192389186	-1.0692385513917553	0.0	1.1925193258861668	-1.059158667162761	0.0	0.984040597645773	-1.0563963877433618	0.0	1.12604843487883	-0.06758540257962203	0.0	1.2637248105049261	-0.044836427350726064	0.0	1.242949421624307	-0.04871847732498282	0.0	1.0535298533575914	-0.025944144986617533	0.0	1.0427873501436793	-0.0996153880317528	0.0	1.155523033337967	-0.3531278487520764	0.0	1.1275559292487256	-0.07470706896559233	0.0	1.0687975842044013	-0.16782364551263304	0.0	1.1863549074384763	-0.30212866124158366	0.0
205	6.859022556390977	0.974981786999128	-0.3921986795108286	0.0	0.9487002781853637	-0.3968913653877742	0.0	1.1490614649135662	-0.7959384608271058	0.0	1.0497470092838588	-1.0712924603053846	0.0	1.2100418793921293	-1.1079434463294113	0.0	1.1862220113805024	-1.1283438510621802	0.0	1.0014653506916613	-1.087607126047634	0.0	1.002813206300219	-0.4064214984262209	0.0	1.14504228689631	-0.8156677293927389	0.0	1.09379588316685	-1.0493247887955754	0.0	1.1994755234281793	-1.0866374033745176	0.0	1.1907685813429705	-1.0782544644392151	0.0	1.01019644277535	-1.0570062675500893	0.0	1.1326236814243447	-0.07854185245260122	0.0	1.2667041606885356	-0.043104236814372525	0.0	1.2523662050107522	-0.05061283206465399	0.0	1.0637458051463216	-0.04886788299048156	0.0	1.0301475743796171	-0.17075082357345409	0.0	1.1334398030458188	-0.43345736878004926	0.0	1.1288814548721997	-0.08394467873949338	0.0	1.0416646448749345	-0.2087240870242362	0.0	1.1585068043837465	-0.3855242227717159	0.0
206	6.892481203007519	0.9710536413670757	-0.44597237499528675	0.0	0.9463124730242805	-0.4501979920493837	0.0	1.1450079625575733	-0.8561184728402302	0.0	1.0505650852183381	-1.091890613662169	0.0	1.2114809705595653	-1.1169884876221905	0.0	1.1924093959039535	-1.1412965403085862	0.0	0.9967725822081807	-1.103452225057819	0.0	0.9906470479136666	-0.4559632949694431	0.0	1.139871900671223	-0.8407024602373585	0.0	1.0904029968829334	-1.0548390833397798	0.0	1.193721347924601	-1.0928865504406913	0.0	1.1871479867590495	-1.0867951539497456	0.0	1.0277041883467128	-1.0580365782579793	0.0	1.1346939375635199	-0.09240527813711438	0.0	1.276689017449669	-0.042634103227514736	0.0	1.2657530146619704	-0.055664122465156826	0.0	1.0747859374848914	-0.07818834149058909	0.0	1.028940139944133	-0.2533417678010247	0.0	1.1183443036817153	-0.5239178388907977	0.0	1.1221397424167021	-0.09962896453047505	0.0	1.024224590849957	-0.2672519617315725	0.0	1.1387768419536437	-0.4703035146452347	0.0
207	6.9259398496240605	0.959908537812507	-0.493993448568718	0.0	0.9372364283188124	-0.4980178289331587	0.0	1.1427460727883576	-0.897492442206605	0.0	1.0525857696151228	-1.0976781735190393	0.0	1.2106990049595339	-1.1168630128608281	0.0	1.1958389716026807	-1.144147790431646	0.0	0.9915069614883453	-1.1051840535026602	0.0	0.9686841227437175	-0.5008258855954631	0.0	1.1320840790460431	-0.8699018890229677	0.0	1.0869252772811833	-1.059337427676702	0.0	1.185902335414071	-1.0926959656245974	0.0	1.1815836893069662	-1.0885886330614167	0.0	1.0381059031688575	-1.0590188826481435	0.0	1.1347728234732577	-0.10675648317994986	0.0	1.2908033914278625	-0.0428472876849883	0.0	1.2803361681289078	-0.0629667657167106	0.0	1.0853077479888529	-0.10924253020500405	0.0	1.0362429302995042	-0.3354212414817018	0.0	1.111883604449856	-0.6107271318850259	0.0	1.1115171888744941	-0.1181880294358284	0.0	1.0192773056741202	-0.3316680787152391	0.0	1.12725873402697	-0.5496842354823473	0.0
208	6.959398496240602	0.9449932718690996	-0.5300678320753149	0.0	0.9248272942660821	-0.5341629672037801	0.0	1.1381587270975793	-0.9219707798804051	0.0	1.0552779940412582	-1.095749310555788	0.0	1.2083394217520644	-1.1123145438962125	0.0	1.1972047565613237	-1.1420598074070936	0.0	0.9867135441952609	-1.1002822926830822	0.0	0.9432299259241878	-0.5347525869940848	0.0	1.122039811408097	-0.8941007220332461	0.0	1.0838631687082685	-1.0619213672867265	0.0	1.1768651905353529	-1.0898698290480553	0.0	1.1744730829253434	-1.0867236214269296	0.0	1.0439541819620364	-1.0597727056682338	0.0	1.1350135131869827	-0.11893650058027293	0.0	1.3061096059768909	-0.04338523431354323	0.0	1.29354014897294	-0.07105919189138386	0.0	1.0939140649532582	-0.13631693248141158	0.0	1.048321728879433	-0.4048417078296558	0.0	1.1149551260118833	-0.6805428315904476	0.0	1.1009976642357657	-0.13543557008143509	0.0	1.0267353500422889	-0.38954685810923134	0.0	1.123965288152176	-0.6163666115983336	0.0
209	6.992857142857143	0.9295189407261195	-0.5504374151977321	0.0	0.9121994025120115	-0.5548251461049848	0.0	1.1282940240972232	-0.9318746087325372	0.0	1.0576577368158309	-1.0910004970954472	0.0	1.2049956738734013	-1.1063455568170493	0.0	1.197350102140004	-1.1384962670079652	0.0	0.983157857265865	-1.0938461386449898	0.0	0.9188759555968531	-0.5538861217317084	0.0	1.109429754685775	-0.9076861822143567	0.0	1.0816015051014605	-1.0623173033355338	0.0	1.1674375765025864	-1.0867123611725027	0.0	1.1667125118720938	-1.0831118688853072	0.0	1.047496261265337	-1.0602835417648713	0.0	1.1359618664671463	-0.12658044180044226	0.0	1.3196127379583504	-0.04425158630127615	0.0	1.3033625609330928	-0.07766301189226488	0.0	1.099525702434783	-0.15431541315719927	0.0	1.061930597308615	-0.45301440904780016	0.0	1.1271466707087903	-0.7247705909090768	0.0	1.0927119610326674	-0.14736103703105588	0.0	1.0427148718210688	-0.4316037788594646	0.0	1.128686846590081	-0.6639260069601273	0.0
210	7.026315789473684	0.9159433325906171	-0.5551057088111334	0.0	0.9015076675862669	-0.560052485064249	0.0	1.1124895248999116	-0.9305999444861325	0.0	1.0583315510875764	-1.0859108574580467	0.0	1.2010207930731835	-1.1003693919435968	0.0	1.196952448908747	-1.1352851260569536	0.0	0.9810269134993379	-1.0884941509658885	0.0	0.8977592893351724	-0.5581312573833181	0.0	1.0938751721791218	-0.90999415872738	0.0	1.07969952569921	-1.0607911004964325	0.0	1.1582635526309415	-1.0840307426216755	0.0	1.1595969834761126	-1.0786332777830416	0.0	1.0501881255724304	-1.0606065226111674	0.0	1.1364353251534758	-0.12811518376980557	0.0	1.3284345119513337	-0.04583828435936283	0.0	1.3084390643549473	-0.08005864798958755	0.0	1.1018361348785222	-0.1601399208272791	0.0	1.074787211219722	-0.4769201088265491	0.0	1.146224513080039	-0.7417459643203034	0.0	1.0865083327570673	-0.15085478551737777	0.0	1.0596549058459817	-0.45329366852061326	0.0	1.1399723813675744	-0.689417134984219	0.0
211	7.059774436090226	0.9057238294038279	-0.5471739427494974	0.0	0.8938478418670405	-0.5530454240229031	0.0	1.0919016825429073	-0.9228788149738374	0.0	1.0560064823598099	-1.081238735487218	0.0	1.1965317272116467	-1.0947568256915092	0.0	1.196437954758686	-1.1330859103067343	0.0	0.9800503313270243	-1.0850343641379752	0.0	0.880428850673975	-0.5504670309419739	0.0	1.0755929097530947	-0.9044818494973194	0.0	1.0768316821465829	-1.0578437327118744	0.0	1.149745717152323	-1.0815075713889262	0.0	1.1542642976636686	-1.0734609282722087	0.0	1.0526851187623887	-1.0608067982717422	0.0	1.1346163028091774	-0.12313621701850296	0.0	1.3304441369639675	-0.048691607896133894	0.0	1.307856974418687	-0.07634325593228099	0.0	1.1014521300629168	-0.1534125299696087	0.0	1.0856569906364328	-0.47841191254145177	0.0	1.1687979092070278	-0.7352826005750634	0.0	1.0809024960683742	-0.1445082199186525	0.0	1.0692986053568245	-0.4543249114698441	0.0	1.154779507119261	-0.6950926313142791	0.0
